<?xml version="1.0" encoding="utf-8"?>
<!-- Generator: Adobe Illustrator 22.0.1, SVG Export Plug-In . SVG Version: 6.00 Build 0)  -->
<svg version="1.1" id="Layer_1" xmlns="http://www.w3.org/2000/svg" xmlns:xlink="http://www.w3.org/1999/xlink" x="0px" y="0px"
	 viewBox="0 0 314 26.5" style="enable-background:new 0 0 314 26.5;" xml:space="preserve">
<style type="text/css">
	.st0{fill-rule:evenodd;clip-rule:evenodd;fill:#1F4491;}
	.st1{fill:#1F4491;}
</style>
<g>
	<g>
		<path d="M139.1,3.6h-12.3c-0.1,0-0.1,0-0.1,0.1V12c0,0.1,0,0.1,0.1,0.1h8.6c0.2,0,0.3,0.1,0.3,0.3v1.4c0,0.2-0.1,0.3-0.3,0.3h-8.6
			c-0.1,0-0.1,0-0.1,0.1v8.4c0,0.1,0,0.1,0.1,0.1h12.3c0.2,0,0.3,0.1,0.3,0.3v1.4c0,0.2-0.1,0.3-0.3,0.3h-14.5
			c-0.2,0-0.3-0.1-0.3-0.3V1.9c0-0.2,0.1-0.3,0.3-0.3h14.5c0.2,0,0.3,0.1,0.3,0.3v1.4C139.4,3.5,139.3,3.6,139.1,3.6z"/>
		<path d="M142.8,24.6V1.9c0-0.2,0.1-0.3,0.3-0.3h1.7c0.2,0,0.3,0.1,0.3,0.3v20.8c0,0.1,0,0.1,0.1,0.1h11.8c0.2,0,0.3,0.1,0.3,0.3
			v1.4c0,0.2-0.1,0.3-0.3,0.3h-14C143,24.9,142.8,24.8,142.8,24.6z"/>
		<path d="M174.9,3.6h-12.3c-0.1,0-0.1,0-0.1,0.1V12c0,0.1,0,0.1,0.1,0.1h8.6c0.2,0,0.3,0.1,0.3,0.3v1.4c0,0.2-0.1,0.3-0.3,0.3h-8.6
			c-0.1,0-0.1,0-0.1,0.1v8.4c0,0.1,0,0.1,0.1,0.1h12.3c0.2,0,0.3,0.1,0.3,0.3v1.4c0,0.2-0.1,0.3-0.3,0.3h-14.5
			c-0.2,0-0.3-0.1-0.3-0.3V1.9c0-0.2,0.1-0.3,0.3-0.3h14.5c0.2,0,0.3,0.1,0.3,0.3v1.4C175.3,3.5,175.2,3.6,174.9,3.6z"/>
		<path d="M181.7,24.3c-1.2-0.6-2.1-1.5-2.8-2.6c-0.7-1.1-1-2.4-1-3.9V8.7c0-1.4,0.3-2.7,1-3.8c0.7-1.1,1.6-2,2.8-2.6
			c1.2-0.6,2.5-0.9,4.1-0.9c1.6,0,2.9,0.3,4.1,0.9s2.1,1.4,2.8,2.5c0.7,1.1,1,2.3,1,3.8c0,0.1,0,0.2-0.1,0.3
			c-0.1,0.1-0.1,0.1-0.2,0.1L191.6,9c-0.2,0-0.3-0.1-0.3-0.3V8.6c0-1.6-0.5-2.8-1.5-3.8s-2.3-1.4-4-1.4c-1.6,0-3,0.5-4,1.4
			s-1.5,2.2-1.5,3.8v9.3c0,1.6,0.5,2.8,1.5,3.8c1,1,2.3,1.4,4,1.4c1.6,0,3-0.5,4-1.4s1.5-2.2,1.5-3.8v-0.1c0-0.2,0.1-0.3,0.3-0.3
			l1.7,0.1c0.2,0,0.3,0.1,0.3,0.3c0,1.4-0.3,2.7-1,3.8s-1.6,2-2.8,2.6c-1.2,0.6-2.5,0.9-4.1,0.9C184.2,25.2,182.9,24.9,181.7,24.3z"
			/>
		<path d="M211.4,1.9v1.4c0,0.2-0.1,0.3-0.3,0.3h-6.5c-0.1,0-0.1,0-0.1,0.1v20.8c0,0.2-0.1,0.3-0.3,0.3h-1.7c-0.2,0-0.3-0.1-0.3-0.3
			V3.8c0-0.1,0-0.1-0.1-0.1h-6.3c-0.2,0-0.3-0.1-0.3-0.3V1.9c0-0.2,0.1-0.3,0.3-0.3h15.5C211.3,1.6,211.4,1.7,211.4,1.9z"/>
		<path d="M227.5,24.7l-4.9-10.3c0-0.1-0.1-0.1-0.1-0.1h-5.7c-0.1,0-0.1,0-0.1,0.1v10.2c0,0.2-0.1,0.3-0.3,0.3h-1.7
			c-0.2,0-0.3-0.1-0.3-0.3V1.9c0-0.2,0.1-0.3,0.3-0.3h8.6c1.9,0,3.5,0.6,4.6,1.8c1.2,1.2,1.8,2.7,1.8,4.7c0,1.6-0.4,2.9-1.3,4
			c-0.8,1.1-2,1.8-3.4,2.1c-0.1,0-0.1,0.1-0.1,0.2l5,10.3c0,0,0,0.1,0,0.2c0,0.2-0.1,0.2-0.3,0.2h-1.8
			C227.7,24.9,227.6,24.9,227.5,24.7z M216.7,3.8v8.4c0,0.1,0,0.1,0.1,0.1h6.2c1.3,0,2.3-0.4,3.1-1.2c0.8-0.8,1.2-1.8,1.2-3.1
			s-0.4-2.3-1.2-3.2s-1.8-1.2-3.1-1.2h-6.2C216.7,3.6,216.7,3.7,216.7,3.8z"/>
		<path d="M236.1,24.2c-1.2-0.6-2.1-1.6-2.8-2.7c-0.7-1.2-1-2.5-1-4.1V9.1c0-1.5,0.3-2.9,1-4.1c0.7-1.2,1.6-2.1,2.8-2.7
			c1.2-0.6,2.6-1,4.2-1c1.6,0,3,0.3,4.2,1c1.2,0.6,2.1,1.6,2.8,2.7c0.7,1.2,1,2.5,1,4.1v8.4c0,1.5-0.3,2.9-1,4.1
			c-0.7,1.2-1.6,2.1-2.8,2.7c-1.2,0.6-2.6,1-4.2,1C238.7,25.2,237.3,24.9,236.1,24.2z M244.3,21.6c1-1,1.5-2.4,1.5-4.1V9
			c0-1.7-0.5-3.1-1.5-4.1c-1-1-2.4-1.6-4.1-1.6c-1.7,0-3,0.5-4,1.6c-1,1-1.5,2.4-1.5,4.1v8.5c0,1.7,0.5,3,1.5,4.1c1,1,2.4,1.5,4,1.5
			C242,23.2,243.3,22.7,244.3,21.6z"/>
		<path d="M266.4,1.6h1.7c0.2,0,0.3,0.1,0.3,0.3v22.7c0,0.2-0.1,0.3-0.3,0.3h-1.7c-0.2,0-0.3-0.1-0.4-0.2L254.7,6.2
			c0-0.1-0.1-0.1-0.1-0.1c0,0-0.1,0-0.1,0.1l0,18.4c0,0.2-0.1,0.3-0.3,0.3h-1.7c-0.2,0-0.3-0.1-0.3-0.3V1.9c0-0.2,0.1-0.3,0.3-0.3
			h1.7c0.2,0,0.3,0.1,0.4,0.2l11.4,18.5c0,0.1,0.1,0.1,0.1,0.1c0,0,0.1,0,0.1-0.1l0-18.4C266.1,1.7,266.2,1.6,266.4,1.6z"/>
		<path d="M273.1,24.6V1.9c0-0.2,0.1-0.3,0.3-0.3h1.7c0.2,0,0.3,0.1,0.3,0.3v22.7c0,0.2-0.1,0.3-0.3,0.3h-1.7
			C273.2,24.9,273.1,24.8,273.1,24.6z"/>
		<path d="M283,24.3c-1.2-0.6-2.1-1.5-2.8-2.6c-0.7-1.1-1-2.4-1-3.9V8.7c0-1.4,0.3-2.7,1-3.8c0.7-1.1,1.6-2,2.8-2.6
			c1.2-0.6,2.5-0.9,4.1-0.9c1.6,0,2.9,0.3,4.1,0.9s2.1,1.4,2.8,2.5c0.7,1.1,1,2.3,1,3.8c0,0.1,0,0.2-0.1,0.3
			c-0.1,0.1-0.1,0.1-0.2,0.1L293,9c-0.2,0-0.3-0.1-0.3-0.3V8.6c0-1.6-0.5-2.8-1.5-3.8s-2.3-1.4-4-1.4c-1.6,0-3,0.5-4,1.4
			c-1,1-1.5,2.2-1.5,3.8v9.3c0,1.6,0.5,2.8,1.5,3.8c1,1,2.3,1.4,4,1.4c1.6,0,3-0.5,4-1.4s1.5-2.2,1.5-3.8v-0.1
			c0-0.2,0.1-0.3,0.3-0.3l1.7,0.1c0.2,0,0.3,0.1,0.3,0.3c0,1.4-0.3,2.7-1,3.8c-0.7,1.1-1.6,2-2.8,2.6c-1.2,0.6-2.5,0.9-4.1,0.9
			C285.6,25.2,284.2,24.9,283,24.3z"/>
		<path d="M299.4,23.5c-1.5-1.1-2.2-2.6-2.2-4.5v-1c0-0.2,0.1-0.3,0.3-0.3h1.6c0.2,0,0.3,0.1,0.3,0.3v0.9c0,1.3,0.5,2.3,1.6,3.1
			s2.5,1.2,4.4,1.2c1.7,0,3-0.4,3.9-1.1c0.9-0.7,1.3-1.7,1.3-2.9c0-0.8-0.2-1.4-0.6-2s-1-1.1-1.9-1.6c-0.9-0.5-2.1-1.1-3.6-1.7
			c-1.7-0.7-3-1.3-3.9-1.8c-0.9-0.5-1.7-1.1-2.2-1.9c-0.6-0.8-0.9-1.8-0.9-3c0-1.9,0.7-3.3,2-4.4s3.1-1.6,5.4-1.6
			c2.5,0,4.4,0.6,5.8,1.7c1.4,1.2,2.1,2.7,2.1,4.6v0.7c0,0.2-0.1,0.3-0.3,0.3H311c-0.2,0-0.3-0.1-0.3-0.3V7.8c0-1.3-0.5-2.3-1.5-3.2
			c-1-0.8-2.4-1.2-4.2-1.2c-1.6,0-2.8,0.3-3.6,1C300.4,5,300,5.9,300,7.2c0,0.8,0.2,1.5,0.6,2c0.4,0.5,1,1,1.8,1.4
			c0.8,0.4,2,0.9,3.6,1.5c1.6,0.7,2.9,1.3,3.9,1.9c1,0.6,1.8,1.3,2.4,2.1c0.6,0.8,0.9,1.9,0.9,3.1c0,1.9-0.7,3.4-2.1,4.5
			s-3.3,1.7-5.7,1.7C302.9,25.2,300.9,24.6,299.4,23.5z"/>
	</g>
	<g>
		<polygon class="st0" points="112.4,24.9 106.3,24.9 106.3,6.7 101.3,6.7 101.3,1.6 117.4,1.6 117.4,6.7 112.4,6.7 112.4,24.9 		
			"/>
		<polygon class="st0" points="74.8,1.6 80.9,1.6 92,15.9 92,1.6 98.1,1.6 98.1,24.9 92,24.9 80.9,10.6 80.9,24.9 74.8,24.9 
			74.8,1.6 		"/>
		<polygon class="st0" points="64.4,6.7 64.4,10.6 70.4,10.6 70.4,15.8 64.4,15.8 64.4,19.8 71.6,19.8 71.6,24.9 58.3,24.9 
			58.3,1.6 71.6,1.6 71.6,6.7 64.4,6.7 		"/>
		<polygon class="st0" points="55.1,24.9 49,24.9 49,1.6 55.1,1.6 55.1,24.9 		"/>
		<path class="st1" d="M13.4,0.7c-7,0-12.6,5.6-12.6,12.6c0,0.2,0,0.3,0,0.5l15.7-8.3v0v0v0L1,15.2C1,15.6,1.1,16,1.2,16.3l16.6-8.8
			L1.7,17.7C1.8,18,1.9,18.3,2,18.6L21,8.5h0h0l0,0L2.8,20c0.2,0.3,0.3,0.5,0.5,0.8l17-9l-16,10.1c0.2,0.3,0.5,0.5,0.8,0.8L21.5,14
			h0l0,0v0l0,0L6.2,23.6c2,1.4,4.5,2.2,7.2,2.2c7,0,12.6-5.6,12.6-12.6C26,6.3,20.4,0.7,13.4,0.7z"/>
		<path class="st1" d="M40.7,15.4c3-0.8,5.2-3.5,5.2-6.8c0-3.9-3.1-7-7-7h-1.2h-0.8h-8.3v23.4h6.1v-8.7l5.7,8.7h7L40.7,15.4z
			 M36.7,12.1C36.7,12.1,36.7,12.1,36.7,12.1l-0.8,0c-0.4,0-0.9,0-1.3,0v-0.9V7.1V6.2v0h0.2c0.2,0,0.4,0,0.7,0h1.1
			c1.6,0,2.9,1.3,2.9,2.9C39.6,10.7,38.3,12.1,36.7,12.1z"/>
	</g>
</g>
</svg>
